<svg width="40" height="40" viewBox="0 0 40 40" fill="none" xmlns="http://www.w3.org/2000/svg">
<rect x="0.5" y="0.5" width="39" height="39" rx="19.5" stroke="#262626"/>
<path opacity="0.6" fill-rule="evenodd" clip-rule="evenodd" d="M19.6953 12.3184C19.1073 12.8995 18.7224 13.7985 18.7224 15.0695V17.5083C18.7224 17.8936 18.4101 18.206 18.0248 18.206H15.8668V20.1179H18.0248C18.4101 20.1179 18.7224 20.4303 18.7224 20.8156V28.6047H20.7428V20.8156C20.7428 20.4303 21.0552 20.1179 21.4405 20.1179H24.0167L24.0174 18.206H21.4405C21.0552 18.206 20.7428 17.8936 20.7428 17.5083V15.3968C20.7428 14.8882 20.8047 14.2664 21.2114 13.7833C21.6406 13.2735 22.2998 13.0891 23.0792 13.089L24.1331 13.0885L24.1332 11.3983L22.2788 11.3953H22.2783C21.1576 11.3955 20.2854 11.7352 19.6953 12.3184ZM18.7145 11.3259C19.6201 10.4309 20.8747 10 22.2788 10H22.28L24.8321 10.0041C25.217 10.0047 25.5287 10.3169 25.5286 10.7018L25.5284 13.786C25.5284 14.1711 25.2162 14.4834 24.8311 14.4836L23.0798 14.4844C22.4862 14.4844 22.3257 14.6263 22.2788 14.682C22.2092 14.7646 22.1382 14.9479 22.1382 15.3968V16.8106H24.7153C24.9004 16.8106 25.0779 16.8842 25.2088 17.0151C25.3396 17.146 25.4131 17.3235 25.413 17.5086L25.4119 20.8159C25.4117 21.2011 25.0994 21.5133 24.7142 21.5133H22.1382V29.3023C22.1382 29.6876 21.8258 30 21.4405 30H18.0248C17.6394 30 17.3271 29.6876 17.3271 29.3023V21.5133H15.1691C14.7838 21.5133 14.4714 21.2009 14.4714 20.8156V17.5083C14.4714 17.123 14.7838 16.8106 15.1691 16.8106H17.3271V15.0695C17.3271 13.51 17.8067 12.2231 18.7145 11.3259Z" fill="white"/>
</svg>
