<svg width="40" height="40" viewBox="0 0 40 40" fill="none" xmlns="http://www.w3.org/2000/svg">
<rect x="0.5" y="0.5" width="39" height="39" rx="19.5" stroke="#262626"/>
<path opacity="0.6" d="M25.3125 30H14.6875C12.1028 30 10 27.8972 10 25.3125V14.6875C10 12.1028 12.1028 10 14.6875 10H25.3125C27.8972 10 30 12.1028 30 14.6875V25.3125C30 27.8972 27.8972 30 25.3125 30ZM14.6875 11.5625C12.9644 11.5625 11.5625 12.9644 11.5625 14.6875V25.3125C11.5625 27.0356 12.9644 28.4375 14.6875 28.4375H25.3125C27.0356 28.4375 28.4375 27.0356 28.4375 25.3125V14.6875C28.4375 12.9644 27.0356 11.5625 25.3125 11.5625H14.6875ZM25.5078 13.5156C24.9685 13.5156 24.5312 13.9529 24.5312 14.4922C24.5312 15.0315 24.9685 15.4688 25.5078 15.4688C26.0471 15.4688 26.4844 15.0315 26.4844 14.4922C26.4844 13.9529 26.0471 13.5156 25.5078 13.5156ZM20 25.0781C17.1999 25.0781 14.9219 22.8001 14.9219 20C15.2008 13.2632 24.8002 13.2651 25.0781 20C25.0781 22.8001 22.8001 25.0781 20 25.0781ZM20 16.4844C18.0615 16.4844 16.4844 18.0615 16.4844 20C16.6775 24.6639 23.3232 24.6626 23.5156 20C23.5156 18.0615 21.9385 16.4844 20 16.4844Z" fill="white"/>
</svg>
