<svg width="16" height="19" viewBox="0 0 16 19" fill="none" xmlns="http://www.w3.org/2000/svg">
<path d="M12.4445 5.94444C12.4445 6.82347 12.1838 7.68276 11.6954 8.41365C11.2071 9.14453 10.513 9.71419 9.70084 10.0506C8.88873 10.387 7.9951 10.475 7.13296 10.3035C6.27082 10.132 5.4789 9.70871 4.85733 9.08714C4.23576 8.46557 3.81247 7.67365 3.64098 6.81151C3.46949 5.94937 3.55751 5.05575 3.8939 4.24363C4.23029 3.43151 4.79994 2.73739 5.53083 2.24902C6.26171 1.76066 7.121 1.5 8.00003 1.5C9.17877 1.5 10.3092 1.96825 11.1427 2.80175C11.9762 3.63524 12.4445 4.7657 12.4445 5.94444ZM8.88892 10.3889H7.11114C5.4609 10.3889 3.87826 11.0444 2.71136 12.2113C1.54447 13.3782 0.888916 14.9609 0.888916 16.6111C0.888916 16.8469 0.982567 17.073 1.14927 17.2397C1.31596 17.4064 1.54206 17.5 1.7778 17.5H14.2222C14.458 17.5 14.6841 17.4064 14.8508 17.2397C15.0175 17.073 15.1111 16.8469 15.1111 16.6111C15.1111 14.9609 14.4556 13.3782 13.2887 12.2113C12.1218 11.0444 10.5392 10.3889 8.88892 10.3889Z" stroke="white" stroke-width="1.5" stroke-linecap="round" stroke-linejoin="round"/>
</svg>
