<svg width="40" height="40" viewBox="0 0 40 40" fill="none" xmlns="http://www.w3.org/2000/svg">
<rect x="0.5" y="0.5" width="39" height="39" rx="19.5" stroke="#262626"/>
<g opacity="0.6">
<path d="M26.618 27.1267H13.3014C11.7249 27.1267 10.3972 25.9461 10.2133 24.38C9.92889 21.9653 9.92889 18.0347 10.2133 15.6193C10.3972 14.0537 11.7247 12.8733 13.3014 12.8733H26.6327C28.204 12.8733 29.5309 14.0492 29.7198 15.6088L29.8269 16.4944C30.0487 18.3244 30.0586 21.3024 29.8495 23.1325L29.7076 24.3706C29.5279 25.9415 28.1999 27.1267 26.618 27.1267ZM13.3014 14.2307C12.4132 14.2307 11.6652 14.8963 11.5614 15.7778C11.2874 18.1062 11.2874 21.8937 11.5614 24.2214C11.665 25.1037 12.4132 25.7691 13.3014 25.7691H26.6182C27.5093 25.7691 28.2576 25.1017 28.3587 24.2162L28.5007 22.978C28.7001 21.236 28.6905 18.4005 28.4794 16.6573L28.3723 15.7717C28.2658 14.8936 27.5178 14.2307 26.6327 14.2307H13.3014Z" fill="white"/>
<path d="M22.6782 19.9999L17.9382 17.6244V22.3756L22.6782 19.9999Z" fill="white"/>
<path d="M17.9384 23.0543C17.8145 23.0543 17.6909 23.0206 17.5818 22.9528C17.3817 22.8297 17.2597 22.6109 17.2597 22.3756V17.6244C17.2597 17.3891 17.3817 17.1703 17.5818 17.047C17.7823 16.9231 18.0322 16.9119 18.2426 17.0179L22.9825 19.3934C23.2121 19.5081 23.3569 19.7427 23.3569 19.9999C23.3569 20.257 23.2121 20.4917 22.9825 20.6063L18.2426 22.9819C18.1465 23.0305 18.0424 23.0543 17.9384 23.0543ZM18.6171 18.724V21.2759L21.1633 19.9999L18.6171 18.724Z" fill="white"/>
</g>
</svg>
